# xmcd
#
# Track frame offsets:
#	150
#	13215
#	29530
#	40060
#	54992
#	67047
#	76997
#	87000
#	101125
#	111997
#	123152
#	134977
#	150792
#	163475
#
# Disc length: 2349 seconds
#
# Revision: 0
# Processed by: cddbd v1.4b41PL1 Copyright (c) Steve Scherf et al.
# Submitted via: audiograbber 1.80
#
DISCID=bb092b0e
DTITLE=Peter e Fred Tex - Sucessos "Anos Dourados" ao som de Guitarras
DYEAR=1900
DGENRE=
TTITLE0=Índia
TTITLE1=O Milionário
TTITLE2=Moendo Café
TTITLE3=Blue Star
TTITLE4=El Condor Pasa
TTITLE5=Tequila
TTITLE6=A lenda do Beijo
TTITLE7=Lover's Blue
TTITLE8=Hawai 5.0
TTITLE9=Quando Setembro Vier
TTITLE10=The Loney Bull
TTITLE11=Cavalheiros do Céu
TTITLE12=Wonderful Land
TTITLE13=Apache
EXTD=
EXTT0=
EXTT1=
EXTT2=
EXTT3=
EXTT4=
EXTT5=
EXTT6=
EXTT7=
EXTT8=
EXTT9=
EXTT10=
EXTT11=
EXTT12=
EXTT13=
PLAYORDER=
